<svg id="圖層_1" data-name="圖層 1" xmlns="http://www.w3.org/2000/svg" viewBox="0 0 120 44.13"><defs><style>.cls-1{fill:#4593d0;}.cls-2{fill:#fff;}</style></defs><rect class="cls-1" width="120" height="44.13"/><path class="cls-2" d="M13,12.54a3,3,0,0,0,2.21.41c.72-.18,1.44-.38,2.16-.58,1.26-.36,2.52-.75,3.78-1.09.63-.17,1.27-.33,1.9-.47a4.59,4.59,0,0,0,.85-.21c.29-.11.54-.29.82-.42s.82-.36,1.23-.53c1.2-.49,3.78-1.1,3.14-2.95-.2-.6-.82-.86-1.32-1.14A3.23,3.23,0,0,0,26,5.33a2.75,2.75,0,0,0-1.6.56c-.62.78-1.66,1-2.44,1.64-.28.22-.66.22-.93.43s-.18.19-.35.24a2.08,2.08,0,0,1-.43,0l-.82.12A8.35,8.35,0,0,0,17.18,9a7.66,7.66,0,0,0-1,.61,1.73,1.73,0,0,1-1,.15c-.33,0-.65.06-1,.11l-1,.16-.5.08c-.1,0-.42,0-.49.06a.68.68,0,0,0-.15.86C12.34,11.6,12.38,12.18,13,12.54Z"/><path class="cls-2" d="M62.06,11.68a1.92,1.92,0,0,0,1.41-.85c.1-.18.2-.36.29-.54A2,2,0,0,0,64,9.14a1.77,1.77,0,0,0-.7-.76,5.67,5.67,0,0,0-1.81-.55c-.73-.15-1.49-.34-2.23-.43a3.35,3.35,0,0,0-1.3.1,15.22,15.22,0,0,0-2.45.88c-.91.41-2,.16-2.85.72a3.82,3.82,0,0,1-1.17.31c-.5.11-1,.31-1.46.47-.84.27-1.68.53-2.53.76-.61.17-1.24,0-1.84.29a5.14,5.14,0,0,1-.75.45c-.26.09-.53.22-.79.31-1,.34-2,.57-3,.83-1.75.6-3.7.34-5.5.68a2.71,2.71,0,0,0-1.46.63c-.13.6.31.85.74,1.14s.75.87,1.23,1.18a9.69,9.69,0,0,0,1.36.6A17.82,17.82,0,0,0,40.7,18a4.2,4.2,0,0,0,2.46-.11c.67-.45,1.42-.76,2.07-1.24.3-.22.54-.51.85-.73s.69-.36,1-.61a7.17,7.17,0,0,1,1.33-1.07c.62-.1,1.2-.81,1.82-.36.3.13.16.41.18.66s.21.6.21.92a3.61,3.61,0,0,1-.15.92v.49a125.57,125.57,0,0,1-.73,17.64A3.84,3.84,0,0,0,50,36.6a3,3,0,0,0,.18.84,3.12,3.12,0,0,0,1.26,1.21c1.07.36,2.55.53,3.39-.39A2.41,2.41,0,0,0,56,36.18a23.09,23.09,0,0,0,.24-2.35A6,6,0,0,0,56,32c-.07-.31-.09-.63-.16-.94-.12-.49-.28-1-.36-1.47a47.65,47.65,0,0,1-.55-7.19,28.83,28.83,0,0,0-.57-5c-.47-1,.18-2.09-.31-3.13a4.41,4.41,0,0,1-.13-1.7c0-.47.32-.64.7-.84a3.54,3.54,0,0,0,.41-.26,1.14,1.14,0,0,1,.45-.19,3.5,3.5,0,0,1,.46-.14,4.28,4.28,0,0,1,3.42.18,2.27,2.27,0,0,0,.91.44A3.59,3.59,0,0,0,62.06,11.68Z"/><path class="cls-2" d="M41.74,34.22a3.52,3.52,0,0,0-.75-.53c-.32-.12-.66-.14-1-.25a11.5,11.5,0,0,1-2.29-1.23,4,4,0,0,0-.48-.32,1.75,1.75,0,0,0-.51-.07c-.32-.07-.51-.37-.79-.52a1.16,1.16,0,0,1-.41-.22,4.13,4.13,0,0,0-1-.61c-.32-.22-.68-.29-1-.48a7.73,7.73,0,0,1-.83-.58,7.26,7.26,0,0,0-1.52-1.19c-1.92-.89-3.25-3.15-4.68-4.64-.94-.86-2.14-2.06-2.12-3.54.42-.94,1.54-1.25,2.38-1.69,1-.79,2.52-1.23,3.12-2.46a1.51,1.51,0,0,0-.08-1.43c-.33-.7-1.2-.67-1.87-.94a3.12,3.12,0,0,0-1.25.15,5,5,0,0,0-1.76,1.13c-.25.22-.45.49-.71.69a2.74,2.74,0,0,1-.88.37.79.79,0,0,1-1-.15,7.25,7.25,0,0,0-1.07-1.92,1.28,1.28,0,0,0-.5-.16c-.16,0-.26-.17-.4-.21s-.55.11-.79.11a2.47,2.47,0,0,0-.94.05,1.92,1.92,0,0,0-.88.71c-.24.36-.14.63-.19,1s-.09.52-.14.78a3.67,3.67,0,0,0-.11.8,5.7,5.7,0,0,0,.15.74,2.09,2.09,0,0,1-.88,1.83,5.63,5.63,0,0,1-.84.61c-.35.19-.75.24-1.11.4a6.16,6.16,0,0,0-1,.56c-.31.2-.61.41-.94.59s-.71.23-1,.39c-.58.29-1.25.34-1.83.57s-1.71-.1-2,.68a3.24,3.24,0,0,0,.94,1.82c.33.76,1.33,1,2,1.51,1,.34,2-.15,3-.08a3.84,3.84,0,0,1-.68,3.75,4.91,4.91,0,0,1-.77,1.49,5.32,5.32,0,0,1-.55.61c-.17.17-.24.42-.42.57s-.39.49-.66.65-.49-.06-.78-.23a1.9,1.9,0,0,0-.57-.23,2.56,2.56,0,0,0-1.2,0,1.42,1.42,0,0,0-.65.61c-.17.22-.42.46-.39.76a5.11,5.11,0,0,0,.13.53c.08.37-.06.6.2.94s.14.38.19.69a1.07,1.07,0,0,0,.18.41,2.94,2.94,0,0,0,.61.56,2.48,2.48,0,0,0,.64.35,5.65,5.65,0,0,1,.65.15,2.45,2.45,0,0,0,1.29.32,7.82,7.82,0,0,0,2.13-.58,4.67,4.67,0,0,0,1-.36,5,5,0,0,0,.79-.66c.33-.3.65-.6,1-.92a14.52,14.52,0,0,0,1.49-1.83c.21-.33.41-.67.6-1s.23-.65.38-1,.19-.32.26-.5a6.8,6.8,0,0,0,.37-1,3.19,3.19,0,0,1,.33-.86,5,5,0,0,0,.38-1.59c0-.24.14-.48.18-.73s0-.59.1-.89a3.53,3.53,0,0,1,.52-1.21,2.31,2.31,0,0,1,1.52.95,8,8,0,0,0,.65.65c.28.24.46.55.73.78a11.76,11.76,0,0,1,1.93,2.39c.71,1,1.38,2,2.09,3.06a10.81,10.81,0,0,0,2.26,2.68A21,21,0,0,0,32,37.6a4,4,0,0,0,1.95.24,30.92,30.92,0,0,0,3.47-.21l1.71-.17c.27,0,.54,0,.81,0,.48-.06,1-.28,1.45-.35a2.17,2.17,0,0,0,1.38-.57A1.33,1.33,0,0,0,43,35.35C42.78,34.82,42.18,34.54,41.74,34.22Z"/><path class="cls-2" d="M74.12,26.08a1.39,1.39,0,0,1,.73.18.86.86,0,0,1,.38.5h.09a3.91,3.91,0,0,1,.07-.39,2,2,0,0,1,.09-.35,3.9,3.9,0,0,0-.68-.23,3.05,3.05,0,0,0-.67-.07,2.5,2.5,0,0,0-1.72.58,2.07,2.07,0,0,0-.64,1.57,2.11,2.11,0,0,0,.6,1.6A2.29,2.29,0,0,0,74,30,2.93,2.93,0,0,0,74.7,30a2.14,2.14,0,0,0,.6-.21l.14-.51-.07,0a2.12,2.12,0,0,1-.56.33,1.75,1.75,0,0,1-.62.12,1.27,1.27,0,0,1-1.08-.47,2.15,2.15,0,0,1-.38-1.37,2,2,0,0,1,.37-1.29A1.21,1.21,0,0,1,74.12,26.08Z"/><path class="cls-2" d="M76.15,27.37A1.59,1.59,0,1,0,78.8,28.5a1.54,1.54,0,0,0-.4-1.14,1.49,1.49,0,0,0-1.12-.4A1.54,1.54,0,0,0,76.15,27.37Zm1.61.15a2.5,2.5,0,0,1,.14,1,2.44,2.44,0,0,1-.14,1,.51.51,0,0,1-.49.29.49.49,0,0,1-.48-.29,2.21,2.21,0,0,1-.15-1,2.31,2.31,0,0,1,.15-1,.5.5,0,0,1,.48-.28A.51.51,0,0,1,77.76,27.52Z"/><path class="cls-2" d="M83.82,28.84v-.37a4.88,4.88,0,0,0,0-.83.91.91,0,0,0-.18-.37.73.73,0,0,0-.3-.22,1,1,0,0,0-.4-.07,1.09,1.09,0,0,0-.55.13,1.33,1.33,0,0,0-.42.43.85.85,0,0,0-.32-.42.88.88,0,0,0-.52-.14,1,1,0,0,0-.49.11,1.2,1.2,0,0,0-.41.35V27l-.19,0h-.45l-.2,0c0,.33,0,.61,0,.86s0,.43,0,.59,0,.36,0,.61,0,.53,0,.85l.23,0H80l.21,0s0,0,0-.06c0-.23,0-.4,0-.49v-1a1.64,1.64,0,0,1,.12-.75.45.45,0,0,1,.76,0,2.8,2.8,0,0,1,.1,1c0,.19,0,.39,0,.6l0,.66.24,0h.42L82,30v-.06c0-.23,0-.4,0-.49v-1a1.83,1.83,0,0,1,.11-.75.41.41,0,0,1,.39-.21.39.39,0,0,1,.38.21,2.36,2.36,0,0,1,.11.89c0,.2,0,.41,0,.64s0,.47,0,.73l.23,0h.43l.25,0,0-.58Z"/><path class="cls-2" d="M87.31,29.89c0-.23,0-.4,0-.49v-1a1.83,1.83,0,0,1,.11-.75.41.41,0,0,1,.39-.21.39.39,0,0,1,.38.21,2.36,2.36,0,0,1,.11.89c0,.2,0,.41,0,.64s0,.47,0,.73l.23,0h.43l.25,0,0-.58v-.9a4.88,4.88,0,0,0,0-.83.91.91,0,0,0-.18-.37.73.73,0,0,0-.3-.22,1,1,0,0,0-.4-.07,1.09,1.09,0,0,0-.55.13,1.33,1.33,0,0,0-.42.43.85.85,0,0,0-.32-.42.88.88,0,0,0-.52-.14,1,1,0,0,0-.49.11,1.2,1.2,0,0,0-.41.35V27l-.19,0h-.45l-.2,0c0,.33,0,.61,0,.86s0,.43,0,.59,0,.36,0,.61,0,.53,0,.85l.24,0h.42l.22,0v-.06c0-.23,0-.4,0-.49v-1a1.68,1.68,0,0,1,.11-.75.45.45,0,0,1,.76,0,2.8,2.8,0,0,1,.1,1c0,.19,0,.39,0,.6l0,.66.24,0h.42l.24,0Z"/><path class="cls-2" d="M92.34,29.62a1.5,1.5,0,0,0,.41-1.12,1.58,1.58,0,0,0-.4-1.14,1.54,1.54,0,0,0-2.66,1.14A1.4,1.4,0,0,0,91.22,30,1.51,1.51,0,0,0,92.34,29.62Zm-1.61-.15a2.41,2.41,0,0,1-.14-1,2.52,2.52,0,0,1,.14-1,.52.52,0,0,1,.49-.28.49.49,0,0,1,.48.29,2.29,2.29,0,0,1,.15,1,2.24,2.24,0,0,1-.15,1,.49.49,0,0,1-.48.29A.51.51,0,0,1,90.73,29.47Z"/><path class="cls-2" d="M94.14,29.11c0-.24,0-.45,0-.62a1.78,1.78,0,0,1,.12-.77.4.4,0,0,1,.4-.23.39.39,0,0,1,.38.19,2.11,2.11,0,0,1,.11.85c0,.3,0,.56,0,.8s0,.45,0,.62l.24,0h.42L96,30l0-.49c0-.17,0-.35,0-.54v-.44c0-.17,0-.28,0-.32a2.53,2.53,0,0,0,0-.59.6.6,0,0,0-.14-.3,1,1,0,0,0-.31-.22,1.07,1.07,0,0,0-.41-.07,1.11,1.11,0,0,0-.52.12,1.17,1.17,0,0,0-.42.36V27l-.19,0h-.44l-.2,0c0,.24,0,.48,0,.73s0,.48,0,.73,0,.45,0,.69,0,.49,0,.76l.24,0h.42l.22,0C94.15,29.64,94.15,29.35,94.14,29.11Z"/><path class="cls-2" d="M101.63,27.75c.23-.69.45-1.34.67-2l-.13,0h-.3l-.13,0c-.13.52-.26,1-.41,1.52s-.31,1-.48,1.48l-.52-1.53c-.16-.5-.31-1-.46-1.47l-.14,0H99.4l-.14,0-.49,1.46c-.17.5-.35,1-.55,1.58-.15-.5-.3-1-.43-1.51s-.27-1-.39-1.53l-.24,0h-.54l-.24,0c.24.72.47,1.43.69,2.12s.4,1.37.57,2l.16,0h.3l.16,0c.17-.52.34-1,.51-1.51s.35-1,.53-1.43c.19.51.37,1,.53,1.5s.32,1,.46,1.44l.16,0h.3l.17,0C101.16,29.18,101.4,28.45,101.63,27.75Z"/><path class="cls-2" d="M102.43,28.45a1.6,1.6,0,0,0,.4,1.16,1.47,1.47,0,0,0,1.11.42,2.45,2.45,0,0,0,.56-.07,1.55,1.55,0,0,0,.45-.21l.13-.34-.06-.05a1.29,1.29,0,0,1-.37.22,1.4,1.4,0,0,1-.4.07.81.81,0,0,1-.68-.31,1.28,1.28,0,0,1-.25-.84h1.86v-.07a.41.41,0,0,0,0-.12,1.39,1.39,0,0,0-.34-1,1.27,1.27,0,0,0-1-.35,1.43,1.43,0,0,0-1.06.41A1.46,1.46,0,0,0,102.43,28.45Zm.89-.3a1.45,1.45,0,0,1,.14-.69.47.47,0,0,1,.42-.24.38.38,0,0,1,.35.21,1.33,1.33,0,0,1,.12.63v.14h-1Z"/><path class="cls-2" d="M108.05,29.61a.93.93,0,0,1-.08-.47V29L108,28v0a.89.89,0,0,0-.3-.72,1.22,1.22,0,0,0-.84-.26,1.37,1.37,0,0,0-.55.12,2.2,2.2,0,0,0-.53.35l.06.16.07.23a1.26,1.26,0,0,1,.31-.36.73.73,0,0,1,.38-.11.57.57,0,0,1,.42.16.63.63,0,0,1,.15.44v.11a3,3,0,0,1-.65.26l-.31.1a1.1,1.1,0,0,0-.49.29.76.76,0,0,0-.15.48.84.84,0,0,0,.22.62.78.78,0,0,0,.6.23,1,1,0,0,0,.48-.12.86.86,0,0,0,.34-.34.54.54,0,0,0,.19.32.52.52,0,0,0,.36.12,1.87,1.87,0,0,0,.32,0,1.7,1.7,0,0,0,.32-.1v-.15h0A.37.37,0,0,1,108.05,29.61Zm-.87-.55a.72.72,0,0,1-.11.42.4.4,0,0,1-.31.14.34.34,0,0,1-.29-.13.7.7,0,0,1-.09-.39.63.63,0,0,1,.19-.49,1.29,1.29,0,0,1,.61-.26Z"/><path class="cls-2" d="M108.8,30l.22,0h.47l.22,0c0-.33,0-.68,0-1.06s0-.78,0-1.23,0-.83,0-1.2,0-.73,0-1.08l-.25,0h-.41l-.25,0c0,.34,0,.69,0,1.06s0,.79,0,1.24,0,.83,0,1.2S108.82,29.61,108.8,30Z"/><path class="cls-2" d="M111.67,29.7a.28.28,0,0,1-.27-.17,3.57,3.57,0,0,1-.06-.87v-.24c0-.18,0-.48,0-.9v-.14h.6v0a.82.82,0,0,1,0-.14v-.06s0-.05,0-.1l-.28,0h-.31V26.9c0-.08,0-.19,0-.35s0-.35,0-.58l-.07,0-.4.18-.41.17c0,.13,0,.25,0,.33a2.35,2.35,0,0,1,0,.26V27a.28.28,0,0,1,0,.09h-.06a2.09,2.09,0,0,1-.31,0h0s0,0,0,.06v.19a.17.17,0,0,1,0,.07h.41v.32c0,.33,0,.66,0,1s0,.51,0,.52a.81.81,0,0,0,.21.6.8.8,0,0,0,.59.21,1.86,1.86,0,0,0,.33,0,2.13,2.13,0,0,0,.37-.14v-.22h0A2.06,2.06,0,0,1,111.67,29.7Z"/><path class="cls-2" d="M114.22,30l.23,0h.43l.23,0c0-.14,0-.29,0-.45s0-.35,0-.58v-.44c0-.17,0-.28,0-.32a2.56,2.56,0,0,0,0-.58.69.69,0,0,0-.15-.31.87.87,0,0,0-.31-.22,1,1,0,0,0-.4-.07,1.19,1.19,0,0,0-.54.12,1.11,1.11,0,0,0-.4.38v-.94c0-.22,0-.43,0-.62s0-.37,0-.54l-.23,0h-.42l-.24,0c0,.26,0,.57,0,.92s0,.85,0,1.49,0,1.05,0,1.37,0,.58,0,.79l.23,0h.43l.23,0c0-.29,0-.56,0-.8s0-.47,0-.66a1.78,1.78,0,0,1,.12-.77.4.4,0,0,1,.4-.23.39.39,0,0,1,.38.19,2.17,2.17,0,0,1,.1.85c0,.3,0,.56,0,.8S114.23,29.78,114.22,30Z"/><path class="cls-2" d="M66.55,20.82l-.12-.06h0a2.59,2.59,0,0,0-.61-.33c-.33-.08-.68,0-1-.11s-.94-.22-1.41-.29a4,4,0,0,0-1.79.06,1.68,1.68,0,0,0-.76.39,1,1,0,0,0-.2.58,3.29,3.29,0,0,0-.08.62,4.49,4.49,0,0,0,.67,2.18,6.11,6.11,0,0,0,.71,1,4.57,4.57,0,0,0,.83.87,2,2,0,0,1,.71.66c.14.22.15.28.41.38a4.62,4.62,0,0,0,1.34.19A7.49,7.49,0,0,0,67,26.89c.44-.08.52-.39.88-.59s.49-.23.65-.59c.69-1.65-.16-3.05-1.17-4.23A2.79,2.79,0,0,0,66.55,20.82Z"/><path class="cls-2" d="M73.82,19.76v2.87h.94V19.54a16,16,0,0,1,1.1,1.39l.65-.72A8.8,8.8,0,0,0,74.76,19v-.39h1.82v-.5H74.76v-1h-.18a7.69,7.69,0,0,0,.71-1.18,6.94,6.94,0,0,1,.6,1l.52-.47c-.1.27-.22.53-.35.81l.3.23c.17-.22.32-.46.48-.7l0,5.74h1v-.83h3.68v-.5H79.79v-1.9h1.28v-.49H79.79V17.12h1.27v-.49H79.79V15.16h1.54v-.49H77.77a11,11,0,0,0,.39-2.1l-1-.19a16.85,16.85,0,0,1-.68,3.9,4.78,4.78,0,0,0-1-.82,5.16,5.16,0,0,0,.29-1l-.88-.21a8,8,0,0,1-.81,2.8h-.28v1h-2v.5h1.81a9.63,9.63,0,0,1-2,2.95l.23.31A8.75,8.75,0,0,0,73.82,19.76Zm4-4.6h1.06v1.47H77.79Zm0,2h1.06v1.72H77.79Zm0,2.21h1.06v1.9H77.79Z"/><path class="cls-2" d="M76.56,13.67h-2l.44-.61a6.44,6.44,0,0,0-1.82-.82l-.16.33a13.67,13.67,0,0,1,1.21,1.1H71.84v.5h4.72Z"/><path class="cls-2" d="M73.14,15.8a9.94,9.94,0,0,1,.61,1.09l.63-.6a6,6,0,0,0-1-.91,5.05,5.05,0,0,0,.31-.93l-.88-.21a9.69,9.69,0,0,1-1.1,3.09l.29.26A7.63,7.63,0,0,0,73.14,15.8Z"/><path class="cls-2" d="M80,14.18a7.19,7.19,0,0,0-1.12-1.86l-.35.18a16,16,0,0,1,.57,2Z"/><path class="cls-2" d="M86.68,14.24h-1.6l.57-.44A8.06,8.06,0,0,0,84,12.3l-.27.28c.25.36.65,1,1,1.66H83v.49h3.65Z"/><path class="cls-2" d="M90.92,18.36a7.64,7.64,0,0,0-2-1.2l-.2.32a17.86,17.86,0,0,1,1.5,1.62Z"/><polygon class="cls-2" points="89.17 16.63 87.14 16.63 87.14 17.13 92.31 17.13 92.31 16.63 90.16 16.63 90.16 14.73 92.46 14.73 92.46 14.24 90.16 14.24 90.16 12.4 89.17 12.4 89.17 14.24 86.91 14.24 86.91 14.73 89.17 14.73 89.17 16.63"/><rect class="cls-2" x="83.35" y="17.28" width="3.08" height="0.46"/><rect class="cls-2" x="83.35" y="15.77" width="3.08" height="0.46"/><path class="cls-2" d="M86.33,22.41V21.08l.73.55a5,5,0,0,0,.82-2.79l-.38-.08A4.07,4.07,0,0,1,86.33,21V18.8h-3v3.76h.85v-.8H85.5v.65Zm-.85-1.13H84.23v-2h1.25Z"/><path class="cls-2" d="M92.85,20.68a7.55,7.55,0,0,0-1.48-2.16l-.31.21A16.16,16.16,0,0,1,92,21.11Z"/><path class="cls-2" d="M88.18,21c0,1.18.22,1.3,1.82,1.3s1.62-.7,1.12-2.5h-.39c0,1.46,0,1.6-.79,1.6s-.79-.14-.79-.58V18.18h-1Z"/><polygon class="cls-2" points="96.19 21.6 102.26 21.6 102.26 22.55 103.24 22.55 103.24 17.95 102.26 17.95 102.26 21.07 99.72 21.07 99.72 17.08 102.75 17.08 102.75 13.37 101.78 13.37 101.78 16.56 99.72 16.56 99.72 12.47 98.69 12.47 98.69 16.56 96.65 16.56 96.65 13.37 95.69 13.37 95.69 17.08 98.69 17.08 98.69 21.07 96.19 21.07 96.19 17.95 95.21 17.95 95.21 22.57 96.19 22.57 96.19 21.6"/><path class="cls-2" d="M114.79,22.58l.7-1.07A6.3,6.3,0,0,1,113.31,20a10.77,10.77,0,0,0,1.53-4.28l-1-.34-.22.17h-2.5V13.73a19.81,19.81,0,0,0,3.86-.51l-.87-.9a8.56,8.56,0,0,1-3.05,1l-.93-.26V16.5c0,3-.27,4.51-.75,5.29V17.64h-2.17c0-.23,0-.48,0-.73V16.2h2.61v-.49h-.66V12.58h-.9v3.13h-1V12.45h-1v4c0,3.3-.12,4.82-.71,6l.32.23c.53-.62,1.18-1.84,1.32-4.56h1.27v4.39h.92v-.31l.09.08c1.33-1.18,1.65-3.4,1.65-6.1V16h2.55a10.63,10.63,0,0,1-.94,3.22,7.54,7.54,0,0,1-1-3.21h-.4a10.83,10.83,0,0,0,1,4,7,7,0,0,1-2.44,2.3l.19.34a7.34,7.34,0,0,0,2.66-1.92A5.25,5.25,0,0,0,114.79,22.58Z"/><path class="cls-2" d="M76.52,35.51l-.35-2.88-.13,0h-.29l-.13,0c-.22.5-.44,1-.67,1.44s-.47.93-.7,1.37c-.25-.46-.49-.92-.72-1.39s-.45-.94-.67-1.42l-.13,0h-.27l-.13,0L72,35.47c0,.1,0,.26-.07.48s-.08.49-.13.79l.13,0h.23l.13,0c0-.26,0-.72.11-1.37v0l.14-1.25q.33.6.66,1.26l.69,1.4h.24c.24-.49.46-1,.69-1.43s.45-.9.68-1.33l.19,1.92c0,.1,0,.36,0,.78v.06l.26,0h.48l.27,0q0-.21-.09-.48C76.59,36.08,76.55,35.83,76.52,35.51Z"/><path class="cls-2" d="M79.68,36.41a.93.93,0,0,1-.08-.47v-.12l0-1v0a.9.9,0,0,0-.29-.72,1.21,1.21,0,0,0-.83-.25,1.5,1.5,0,0,0-.55.11,2.54,2.54,0,0,0-.53.35l.06.16.08.22a.94.94,0,0,1,.31-.34.58.58,0,0,1,.36-.12.55.55,0,0,1,.42.16.62.62,0,0,1,.15.44v.1a2.82,2.82,0,0,1-.65.26l-.3.1a1,1,0,0,0-.48.29.72.72,0,0,0-.15.47.85.85,0,0,0,.21.61.81.81,0,0,0,.6.23.94.94,0,0,0,.47-.12.92.92,0,0,0,.34-.34.52.52,0,0,0,.19.33.56.56,0,0,0,.35.11,1.22,1.22,0,0,0,.32,0,1.12,1.12,0,0,0,.31-.1v-.15h0A.4.4,0,0,1,79.68,36.41Zm-.87-.55a.67.67,0,0,1-.1.41.36.36,0,0,1-.31.15.34.34,0,0,1-.28-.13A.7.7,0,0,1,78,35.9a.62.62,0,0,1,.18-.48,1.29,1.29,0,0,1,.6-.26Z"/><path class="cls-2" d="M82.84,36.41a1.75,1.75,0,0,0-.7-.11H82c-.57,0-.86-.12-.86-.3a.28.28,0,0,1,.08-.2.26.26,0,0,1,.19-.09h.1a1.7,1.7,0,0,0,1-.26.87.87,0,0,0,.36-.74.83.83,0,0,0-.08-.36.64.64,0,0,0-.24-.25h.1l.5,0v-.29h-.54l-.65,0-.4,0a1.44,1.44,0,0,0-.9.26.85.85,0,0,0-.34.71.8.8,0,0,0,.2.56,1,1,0,0,0,.58.29v.08a1.21,1.21,0,0,0-.45.29.59.59,0,0,0-.16.38.48.48,0,0,0,.11.3.5.5,0,0,0,.28.17v.05a1,1,0,0,0-.46.29.65.65,0,0,0-.15.44.64.64,0,0,0,.34.57,1.75,1.75,0,0,0,.94.21A1.87,1.87,0,0,0,82.76,38a1.11,1.11,0,0,0,.46-.91.93.93,0,0,0-.1-.42A.65.65,0,0,0,82.84,36.41Zm-1.55-2.2a.39.39,0,0,1,.34-.18.36.36,0,0,1,.33.16.85.85,0,0,1,.11.48,1.25,1.25,0,0,1-.11.6.35.35,0,0,1-.34.19.39.39,0,0,1-.35-.18,1.05,1.05,0,0,1-.1-.54A1,1,0,0,1,81.29,34.21Zm1,3.76a1.08,1.08,0,0,1-.64.16.84.84,0,0,1-.56-.18.65.65,0,0,1-.2-.5.55.55,0,0,1,.08-.31.49.49,0,0,1,.23-.22l.69,0a.83.83,0,0,1,.48.14.51.51,0,0,1,.15.4A.53.53,0,0,1,82.26,38Z"/><path class="cls-2" d="M84.33,35.84A.48.48,0,0,0,84,36a.44.44,0,0,0-.14.34.45.45,0,0,0,.14.35.46.46,0,0,0,.34.15.47.47,0,0,0,.35-.15.45.45,0,0,0,.14-.35.44.44,0,0,0-.14-.34A.48.48,0,0,0,84.33,35.84Z"/><path class="cls-2" d="M88.57,32.63H87.36l-.21,0c0,.28,0,.59,0,.92s0,.72,0,1.14,0,.85,0,1.17,0,.61,0,.88l.25,0h.48l.26,0c0-.28,0-.49,0-.62s0-.22,0-.27V35h.2a2.06,2.06,0,0,0,1.25-.31,1.12,1.12,0,0,0,.4-.95,1,1,0,0,0-.32-.82A1.71,1.71,0,0,0,88.57,32.63Zm.2,1.8a1,1,0,0,1-.69.21v-1c0-.11,0-.22,0-.33s0-.22,0-.33h.19a.63.63,0,0,1,.51.2.81.81,0,0,1,.17.58A1,1,0,0,1,88.77,34.43Z"/><path class="cls-2" d="M93.17,33.87H92.3a3,3,0,0,0,0,.31v1.18a1.58,1.58,0,0,1-.11.73.39.39,0,0,1-.38.21.38.38,0,0,1-.37-.2,2.3,2.3,0,0,1-.11-.88c0-.19,0-.41,0-.63s0-.47,0-.72h-.9c0,.27,0,.54,0,.79s0,.49,0,.71v.33a1.33,1.33,0,0,0,.21.84.82.82,0,0,0,.68.26,1.06,1.06,0,0,0,.51-.11,1.24,1.24,0,0,0,.41-.36v.41l.22,0H93l.22,0c0-.24,0-.48,0-.72s0-.48,0-.72,0-.47,0-.71S93.15,34.11,93.17,33.87Z"/><path class="cls-2" d="M95.71,33.79a1.13,1.13,0,0,0-.47.09,1,1,0,0,0-.36.28v-1c0-.14,0-.29,0-.44s0-.33,0-.51l-.24,0h-.4l-.26,0c0,.26,0,.57,0,.92s0,.8,0,1.34,0,1,0,1.33,0,.66,0,.92h.11l.24-.18.29-.15a1.11,1.11,0,0,0,.39.31,1,1,0,0,0,.47.1,1.21,1.21,0,0,0,1-.43,1.77,1.77,0,0,0,.37-1.18,1.59,1.59,0,0,0-.31-1A1,1,0,0,0,95.71,33.79Zm.14,2.44a.46.46,0,0,1-.46.29.43.43,0,0,1-.42-.26,2.26,2.26,0,0,1-.12-.88,2.4,2.4,0,0,1,.13-1,.47.47,0,0,1,.45-.28.44.44,0,0,1,.43.25,1.92,1.92,0,0,1,.13.85A2.5,2.5,0,0,1,95.85,36.23Z"/><path class="cls-2" d="M98.44,32.23l-.24,0h-.41l-.25,0c0,.33,0,.67,0,1s0,.78,0,1.23,0,.81,0,1.18,0,.73,0,1.06l.22,0h.47l.21,0c0-.32,0-.67,0-1s0-.78,0-1.22,0-.82,0-1.19S98.43,32.57,98.44,32.23Z"/><path class="cls-2" d="M99.72,32.33a.42.42,0,0,0-.32.13.43.43,0,0,0-.14.32.44.44,0,0,0,.46.45.44.44,0,0,0,.32-.13.41.41,0,0,0,.13-.32.44.44,0,0,0-.13-.32A.42.42,0,0,0,99.72,32.33Z"/><path class="cls-2" d="M100.16,33.87h-.89c0,.26,0,.51,0,.74s0,.47,0,.7,0,.41,0,.63,0,.5,0,.8l.23,0h.43l.23,0c0-.3,0-.57,0-.8s0-.44,0-.63,0-.46,0-.7S100.15,34.13,100.16,33.87Z"/><path class="cls-2" d="M102,34.88a1.49,1.49,0,0,1-.42-.22.32.32,0,0,1-.09-.23.34.34,0,0,1,.12-.27.52.52,0,0,1,.31-.1.63.63,0,0,1,.4.14,1.15,1.15,0,0,1,.32.41h0c0-.09,0-.19.07-.29s.07-.18.11-.27a1.56,1.56,0,0,0-.42-.19,1.33,1.33,0,0,0-.45-.07,1.16,1.16,0,0,0-.8.27.92.92,0,0,0-.3.72.66.66,0,0,0,.16.46,1.43,1.43,0,0,0,.57.36l.12,0c.39.16.58.32.58.48a.38.38,0,0,1-.12.3.45.45,0,0,1-.33.11.76.76,0,0,1-.47-.16.93.93,0,0,1-.3-.46H101V36c0,.3-.06.49-.07.56a1.18,1.18,0,0,0,.4.17,1.9,1.9,0,0,0,.5.06,1.19,1.19,0,0,0,.83-.28,1,1,0,0,0,.31-.74.68.68,0,0,0-.16-.48A2.27,2.27,0,0,0,102,34.88Z"/><path class="cls-2" d="M106.31,35.73c0-.13,0-.28,0-.45V35a2.56,2.56,0,0,0,0-.58.61.61,0,0,0-.15-.3.73.73,0,0,0-.3-.22,1,1,0,0,0-.4-.08,1,1,0,0,0-.53.13,1.08,1.08,0,0,0-.4.37v-.93c0-.22,0-.42,0-.61s0-.37,0-.53l-.23,0-.22,0-.2,0-.23,0c0,.25,0,.55,0,.91s0,.83,0,1.46,0,1,0,1.36,0,.57,0,.78l.23,0h.42l.22,0c0-.28,0-.55,0-.79s0-.46,0-.65a1.78,1.78,0,0,1,.12-.77.41.41,0,0,1,.4-.22.38.38,0,0,1,.37.19,2.11,2.11,0,0,1,.1.84c0,.29,0,.55,0,.79s0,.44,0,.61l.23,0h.42l.24,0c0-.13,0-.28,0-.44S106.31,36,106.31,35.73Z"/><path class="cls-2" d="M107.64,32.33a.44.44,0,0,0-.33.13.42.42,0,0,0-.13.32.41.41,0,0,0,.13.32.42.42,0,0,0,.32.13.44.44,0,0,0,.46-.45.48.48,0,0,0-.13-.32A.44.44,0,0,0,107.64,32.33Z"/><path class="cls-2" d="M108.08,33.87h-.9c0,.26,0,.51,0,.74s0,.47,0,.7,0,.41,0,.63,0,.5,0,.8l.23,0h.44l.23,0c0-.3,0-.57,0-.8s0-.44,0-.63,0-.46,0-.7S108.06,34.13,108.08,33.87Z"/><path class="cls-2" d="M111.54,35.73V35a2.69,2.69,0,0,0,0-.59.71.71,0,0,0-.14-.29.84.84,0,0,0-.31-.22,1.06,1.06,0,0,0-.4-.08,1.11,1.11,0,0,0-.52.12,1.25,1.25,0,0,0-.41.36v-.41l-.19,0h-.44l-.19,0c0,.23,0,.47,0,.71s0,.49,0,.73,0,.44,0,.68,0,.49,0,.75l.23,0h.42l.22,0c0-.31,0-.59,0-.83s0-.44,0-.61a1.78,1.78,0,0,1,.12-.77.41.41,0,0,1,.39-.22.39.39,0,0,1,.38.19,2.11,2.11,0,0,1,.1.84c0,.29,0,.55,0,.79s0,.44,0,.61l.24,0h.42l.24,0a3.64,3.64,0,0,1,0-.48C111.54,36.09,111.54,35.91,111.54,35.73Z"/><path class="cls-2" d="M114.75,36.41a1.82,1.82,0,0,0-.71-.11h-.1c-.57,0-.86-.12-.86-.3a.27.27,0,0,1,.07-.2.29.29,0,0,1,.2-.09h.1a1.7,1.7,0,0,0,1-.26.88.88,0,0,0,.35-.74.83.83,0,0,0-.07-.36.71.71,0,0,0-.24-.25h.09l.51,0v-.29h-.55l-.64,0-.4,0a1.49,1.49,0,0,0-.91.26.86.86,0,0,0-.33.71.79.79,0,0,0,.19.56,1.06,1.06,0,0,0,.58.29v.08a1.25,1.25,0,0,0-.44.29.54.54,0,0,0-.16.38.47.47,0,0,0,.1.3.52.52,0,0,0,.29.17v.05a1,1,0,0,0-.46.29.68.68,0,0,0,.18,1,1.81,1.81,0,0,0,1,.21,1.89,1.89,0,0,0,1.19-.36,1.1,1.1,0,0,0,.45-.91.93.93,0,0,0-.09-.42A.78.78,0,0,0,114.75,36.41Zm-1.55-2.2a.38.38,0,0,1,.34-.18.36.36,0,0,1,.33.16.86.86,0,0,1,.1.48,1.27,1.27,0,0,1-.1.6.37.37,0,0,1-.35.19.37.37,0,0,1-.34-.18,1,1,0,0,1-.11-.54A.9.9,0,0,1,113.2,34.21Zm1,3.76a1.1,1.1,0,0,1-.64.16A.82.82,0,0,1,113,38a.63.63,0,0,1-.21-.5.56.56,0,0,1,.09-.31.52.52,0,0,1,.22-.22l.7,0a.83.83,0,0,1,.48.14.51.51,0,0,1,.15.4A.56.56,0,0,1,114.17,38Z"/></svg>