<svg width="110" height="110" viewBox="0 0 110 110" fill="none" xmlns="http://www.w3.org/2000/svg">
<circle cx="55" cy="55" r="55" fill="#4694D1"/>
<path d="M32.075 51.75V54.025H39.2V51.75H32.075ZM32.075 55.15V57.4H39.2V55.15H32.075ZM31 48.275V50.65H39.7V48.275H31ZM33.35 58.6V61H36.6V63.8H33.35V66.2H39.2V58.6H33.35ZM32.025 58.6V67.275H34.575V58.6H32.025ZM33.2 45.125C33.825 46.2 34.625 47.725 34.95 48.675L37.375 47.35C36.975 46.425 36.225 45.05 35.525 44L33.2 45.125ZM39.825 62.8V64.95H54.25V62.8H39.825ZM40.825 52.175V54.325H53.225V52.175H40.825ZM40.55 59.475V61.675H53.55V59.475H40.55ZM39.775 55.4V57.675H54.225V55.4H39.775ZM45.45 50.75V56.35H48.3V50.75H45.45ZM45.45 60.275V67.6H48.3V60.275H45.45ZM48.925 57.55C48.675 58.2 48.2 59.15 47.8 59.85L49.9 60.475C50.4 59.9 51 59.1 51.625 58.2L48.925 57.55ZM42.3 58.125C42.65 58.75 42.95 59.625 43.075 60.175L45.5 59.45C45.35 58.9 45 58.1 44.625 57.525L42.3 58.125ZM49.775 47.075H51.15V49.075H49.775V47.075ZM46.3 47.075H47.65V49.075H46.3V47.075ZM42.85 47.075H44.175V49.075H42.85V47.075ZM40.425 44.95V51.2H53.7V44.95H40.425Z" fill="white"/>
<path d="M57.2 51.7V54.35H79.7V51.7H57.2ZM59.375 46.825V49.425H73.675V46.825H59.375ZM63.775 60.425V62.675H74.95V60.425H63.775ZM63.775 64.35V66.875H74.95V64.35H63.775ZM65.275 44.125V53.175H68.225V44.125H65.275ZM76.275 44.85C71.9 51.125 64.55 55.9 56.425 58.5C56.975 59.1 57.875 60.35 58.225 61C66.325 58.025 73.95 53 78.85 46.175L76.275 44.85ZM62.1 56.35V67.625H65.1V58.8H73.725V67.525H76.85V56.35H62.1Z" fill="white"/>
</svg>
